# xmcd CD database file
#
# Track frame offsets:
#	150
#	19365
#	37350
#	61630
#	85807
#	108462
#	118765
#	139960
#	150181
#	166863
#	185751
#	196969
#	202529
#	220628
#	233885
#
# Disc length: 3385 seconds
#
# Revision: 0
# Processed by: cddbd v1.5.2PL0 Copyright (c) Steve Scherf et al.
# Submitted via: CDex 1.51
#
DISCID=c70d370f
DTITLE=SHEHAN Steve - SAFAR
DYEAR=1997
DGENRE=Jazz
TTITLE0=A Sayat Nova
TTITLE1=Berberes
TTITLE2=Dunia Jana
TTITLE3=Papyrus
TTITLE4=From Mogador
TTITLE5=South winds in Samarkand
TTITLE6=Safar
TTITLE7=Marrakech el Hamra
TTITLE8=Axum Abyssinia
TTITLE9=Wajd
TTITLE10=Assouf illougan
TTITLE11=Les filles
TTITLE12=Jihan Numa
TTITLE13=Alhambra dreams
TTITLE14=Night song
EXTD=YEAR: 1997
EXTT0=
EXTT1=
EXTT2=
EXTT3=
EXTT4=
EXTT5=
EXTT6=
EXTT7=
EXTT8=
EXTT9=
EXTT10=
EXTT11=
EXTT12=
EXTT13=
EXTT14=
PLAYORDER=
